<svg version="1.2" xmlns="http://www.w3.org/2000/svg" width="682.667" height="682.667" viewBox="0 0 512.000000 512.000000"><path d="M242.9 7.4c-.2.2-3.3.7-6.9 1-18.8 2-42.3 8.8-60.5 17.6-25.1 12.1-37.3 25.7-49.4 55-7.3 17.8-5.4 27 5.7 27.2 5 0 6.8-.5 18.2-5.7 9.7-4.5 17.9-6.1 21.2-4.4 2.9 1.6 2.2 5.7-1.7 9.6-5.5 5.5-7.4 8.3-6.8 9.9.9 2.5 5.7 1.5 14.5-3.1 7.5-3.9 19.4-8.4 22.2-8.5.6 0-.5 1.1-2.4 2.5s-4.3 3.9-5.3 5.6c-2 3-2 3.1 0 5 1.9 1.9 2.2 2 8.8.4 14.9-3.4 19.6-2.1 27.8 8.1 6.7 8.1 9 13.5 9.1 21.4.1 5.4-.4 7.3-2.7 11.2-2.4 4.2-4.4 5.7-8.5 6.4-2.4.4-7-4.6-11.8-12.8-6.7-11.5-15.7-22.4-20.1-24.6-9.7-4.9-17.3 2.2-17.3 16 0 12.6 7 28.8 19.7 45.7 7.2 9.4 9.7 14.3 10.8 21.1.4 2.5.9 5.4 1.1 6.5.7 3.6.6 29.9-.1 32.7-.6 2.3-1.7 3-8.1 4.9-4 1.2-8 2.9-8.8 3.8-.8.9-2.3 4.8-3.5 8.6-1.1 3.9-2.6 7.8-3.3 8.7-1.8 2.4-19.9 8.7-22.4 7.8-1-.4-4.3-1.1-7.2-1.5-6.6-.9-9.7 1-16.5 10.1-3.4 4.6-5.6 6.6-8 7.2-4 1-12.2-.4-16.4-2.8-1.8-1.1-3.3-1.6-3.3-1.1 0 .9 9.3 10.2 12.4 12.4 1.9 1.4 1.9 1.5-.4 4.7-2.6 3.6-3.1 10.5-1.1 15.3l1.1 2.9 3.6-3.2c2-1.7 3.8-2.9 4-2.7.3.3.7 1.7 1 3.3.2 1.6.9 4.9 1.4 7.4.5 2.5 1.4 7.2 2 10.5.5 3.3 1.3 7.1 1.6 8.5.3 1.4.7 13.1.9 26l.3 23.6-3.6 2c-2.9 1.5-3.6 2.5-3.4 4.2.2 1.3-.5 3.7-1.6 5.5-1.1 1.8-5.2 8.5-9.1 15.1l-7.2 11.8 1.3 4.6c1.2 4.2 2.1 5.2 9.5 10.2 14.5 9.7 21.8 13 30.3 13.6 4.1.3 8.9.7 10.5.9 1.7.2 4 .4 5.1.4 1.2.1 6.1 3 10.9 6.6l8.8 6.6 9.3-2 9.3-2 9.8 3.3c5.4 1.8 16.1 6.2 23.8 9.8 19.2 8.9 20.3 9.2 21.8 8 2.2-1.9 23.1-12.7 31.7-16.6l8.6-3.7 4.8 2c6 2.6 6.4 2.6 11.7-.3 2.4-1.3 8.3-3.7 13.1-5.2 9.7-3.1 10.7-4.2 8.8-10-1.1-3.1-1-3.7.7-5 1.9-1.6 13.7-7.4 23.3-11.5 3-1.3 10.2-4.7 15.9-7.6 5.7-2.9 11.6-5.3 13.1-5.3 2.4 0 3.1-.7 5-5.1 1.6-3.9 1.9-5.7 1.2-7.3-.5-1.2-5-6.8-9.8-12.5-8.8-10.3-8.8-10.4-8.8-16-.1-3.1.3-9 .7-13.1.8-8.1 6.7-51.4 7.1-51.7.1-.1 3.2-.4 7-.7 3.7-.2 6.9-.6 7.2-.9.6-.5-5.3-5-10.9-8.3l-4.2-2.5 3.5.4c1.9.3 4.8 1 6.3 1.6 1.6.6 3.3 1.1 3.9 1.1 1.6 0 .1-4.9-3.1-10l-2.7-4.5 3.8.3c2.3.3 3.8 0 3.8-.7 0-.6-.6-1.1-1.4-1.1-2.4 0-7.7-6.5-9.5-11.7-4.1-12.2-10.7-16.3-27.5-17.3-9.4-.5-11.9-1-16.6-3.4-8.5-4.3-8.9-4.9-7.7-10.3.9-4.3.7-4.8-1.3-6.5-2-1.6-7.4-3.6-12.5-4.5-1.1-.2-2.9-.6-4-.8-1.1-.2-3.3-.4-4.8-.4l-2.8-.1 3.2-4.6c1.7-2.5 5.1-6.8 7.5-9.5 7.1-8 9.8-14.7 9.5-23.4-.2-6-1.9-10.2-4.9-12.3-3.1-2.2-8.2-3.4-8.2-2 0 .6-.7.8-1.4.5-1.1-.4-1.3-.1-.9 1 .5 1.3.2 1.5-1.1 1-.9-.4-1.5-.3-1.1.2.6 1.1-7.6 8.1-9.9 8.5-.7.1-2 .7-2.7 1.3-.8.6-3.6 1.4-6.4 1.7-12.9 1.6-15.7-7.3-10.4-32.7 3-14.6 3.1-14.7 3.8-14.7.4 0 .8-.7.8-1.5 0-2.5 2.6-9.5 3.5-9.5.5 0 .7-.3.5-.8-.6-.9 4-12.3 7.1-17.8 4.5-7.8 11.2-9.4 22.9-5.5 7.8 2.6 10.5 2.6 12.8.1 2.8-3.1 2.1-9.2-1.8-16.4l-3.5-6.2 5.2 1.3c12.4 3.2 27 3.6 31.2.8 4.5-2.9 2.5-6.4-6.1-10.5-6.3-3-10.5-6.1-10.5-7.6 0-1.7.6-1.7 14.8.1 2.9.4 6 .4 6.8.1 1.5-.6 1.5-.8-.1-2.6-1.7-1.8-1.6-1.9 3.9-1.3 4.5.5 5.7.3 6.2-1 1-2.6-1.3-5.3-7.8-9.6-3.5-2.3-5.8-4.1-5.3-4.1.6 0 7.2 1.2 14.8 2.7 13.7 2.7 13.9 2.7 15.3.8 1.7-2.3 1.1-4.6-2.8-9.9-10.6-14.7-33.2-32.3-56.6-44-9.2-4.6-38.8-14.3-53-17.3-9.5-2.1-15.2-2.6-30.3-2.9-10.3-.2-18.8-.2-19 0z"/><path d="M144.6 125.5c-5.1 2.7-13.7 10.6-17.1 15.9-4.2 6.3-5.8 12.9-4.4 17.9 1.1 4.2 5.2 7.9 7.7 7 4.7-1.8 9.2-10.7 12.1-24.1 1.1-5.1 2.9-11.2 4-13.7 2.2-4.9 2-5.2-2.3-3zM119 130.9c-8.4 1.7-14.5 6.4-15.6 11.9-.6 2.7-.3 3.3 1.7 4 1.5.6 3.6.5 5.4-.1 2.9-1 10.8-8.5 14.7-14l1.9-2.7-2.3.1c-1.3.1-3.9.4-5.8.8zM353.5 138.2c8.2 6.2 13.3 13.3 18.5 25.8 4.9 11.5 7.5 13.5 13.2 9.6 7.3-4.9 6.7-16-1.2-24.1-7.1-7.2-16.7-11.6-28.5-12.9l-5-.6 3 2.2z"/></svg>