<?xml version="1.0" encoding="utf-8"?>
<!-- Generator: Adobe Illustrator 28.1.0, SVG Export Plug-In . SVG Version: 6.00 Build 0)  -->
<svg version="1.1" id="Layer_1" xmlns="http://www.w3.org/2000/svg" xmlns:xlink="http://www.w3.org/1999/xlink" x="0px" y="0px"
	 viewBox="0 0 1080 1080" style="enable-background:new 0 0 1080 1080;" xml:space="preserve">
<style type="text/css">
	.st0{display:none;fill:#FFFFFF;}
	.st1{fill:#FFFFFF;}
</style>
<g id="_x34_d9b74e6-0532-4438-8d30-4bedc4b6a2ed" transform="matrix(1 0 0 1 540 540)">
	<rect x="-540" y="-540" vector-effect="non-scaling-stroke" class="st0" width="1080" height="1080"/>
</g>
<g id="b34fb80e-f240-4794-88fb-84b36d4c794b" transform="matrix(1 0 0 1 540 540)">
</g>
<g transform="matrix(1 0 0 1 540 540)">
	<g vector-effect="non-scaling-stroke">
		<g transform="matrix(0.1 0 0 -0.1 0 0)">
			<g>
				<path vector-effect="non-scaling-stroke" class="st1" d="M-1819.5,4889.8c-162.9-72.8-182-272.1-34.5-350.7
					c28.7-15.3,205-28.7,484.8-38.3c427.3-13.4,701.3-46,938.9-105.4c206.9-53.6,469.5-143.7,469.5-161c0-9.6-55.6-80.5-122.6-157.1
					C-984,3054.1-1539.7,1973.4-1867.3,603.3c-61.3-251-174.4-833.5-185.9-956.2c-5.7-53.7-9.6-55.6-293.2-128.4
					c-866.1-218.4-1559.8-557.6-2017.7-984.9c-534.7-498.1-676.5-1101.7-392.9-1666.9c151.4-298.9,471.4-618.9,869.9-866.1
					c1030.9-643.8,2780.4-988.7,4487.7-887.2c1716.9,103.5,3146.3,599.8,3847.6,1333.6c216.5,229.9,316.2,387.1,404.3,651.5
					c86.2,258.7,49.8,651.5-84.3,917.9c-387,760.7-1540.5,1379.6-3052.4,1638.3c-136,23-260.6,46-274,49.8
					c-24.9,7.7-26.8-7.6,26.8,505.9c145.6,1435.2,515.4,2812.9,963.8,3590.9c176.3,306.6,212.7,344.9,412,419.6
					c515.4,197.4,831.6,258.7,1458.2,279.8c243.4,9.6,465.6,26.8,494.4,38.3c65.2,24.9,116.9,136,99.6,212.7
					c-5.8,28.7-32.6,72.8-59.4,97.7c-47.9,46-53.7,46-425.4,44.1c-720.5-5.7-1124.8-78.6-1732.2-316.2
					c-274-109.2-298.9-128.4-500.1-438.8c-576.8-891-1000.2-2521.7-1155.4-4451.2c-30.7-400.5-59.4-1906.6-38.3-2050.3
					c21.1-132.2,82.4-195.5,191.6-195.5c69,0,97.7,11.5,139.9,53.7l53.6,53.7v314.3c0,174.4,5.8,316.2,13.4,316.2
					c44.1,0,492.5-161,615.1-220.4c249.1-120.7,383.2-270.2,341.1-377.5c-42.1-115-293.2-279.8-594-392.8
					c-251-93.9-768.4-216.5-1121-264.4c-51.7-7.7-231.8-23-400.5-36.4l-306.6-24.9l-57.5-63.2c-47.9-53.6-55.6-72.8-46-141.8
					c7.7-51.7,28.7-93.9,61.3-120.7c46-40.2,69-44.1,256.8-44.1c224.2,0,666.8,53.7,973.4,115
					c869.9,180.1,1406.5,444.6,1580.8,785.6c34.5,69,44.1,116.9,44.1,239.5c0,134.1-7.7,166.7-57.5,254.8
					c-153.3,279.8-576.8,513.5-1211,674.5l-82.4,21.1v151.4c0,84.3,5.8,153.3,15.3,153.3c7.7,0,130.3-28.8,272.1-65.2
					c643.8-164.8,1117.1-396.6,1410.3-689.8c184-185.8,247.2-316.2,245.3-509.7c0-118.8-9.6-162.9-57.5-258.7
					c-67.1-138-272.1-352.6-448.4-467.6C2325-3424.3,1522.2-3660,652.2-3738.5c-308.5-26.8-994.5-26.8-1303,0
					c-869.9,78.6-1672.8,314.2-2165.3,636.1c-176.3,115-381.3,329.6-448.4,467.6c-80.5,162.9-82.4,354.5-5.8,511.6
					c115,233.8,379.4,456,766.5,645.7c128.4,63.2,258.7,120.7,289.3,128.4c55.6,13.4,55.6,13.4,44.1-61.3
					c-7.7-40.3-13.4-101.6-13.4-136.1c0-55.6-11.5-67.1-147.5-141.8c-394.7-216.5-567.2-423.5-569.1-687.9
					c-3.8-389,415.8-718.6,965.7-760.7c216.5-15.3,306.6,40.3,306.6,193.5c0,111.1-61.3,162.9-220.4,185.8
					c-329.6,49.8-530.8,134.1-617,264.4c-70.9,105.4-59.4,166.7,49.8,272.1c51.7,49.8,120.7,105.4,153.3,120.7l57.5,30.6l-1.9-93.9
					c0-160.9,101.6-249.1,243.4-210.8c115,32.6,138,93.9,151.4,406.2c76.6,1632.6,346.8,2908.7,845,4000.9
					c279.8,615.1,707.1,1257,1237.8,1856.8c298.9,337.2,304.7,344.9,304.7,425.4c0,116.9-67.1,168.6-358.3,281.7
					c-291.3,111.1-607.4,199.3-868,239.5C-997.5,4891.7-1740.9,4924.3-1819.5,4889.8z M1700.5-737.9
					c1312.6-243.3,2322.4-753,2673-1352.8c105.4-178.2,136-298.9,126.5-509.7c-5.7-159-15.3-189.7-88.1-337.2
					c-321.9-649.6-1385.4-1195.7-2801.4-1439C1005-4482,317.1-4524.1-378.5-4499.2c-1950.7,67.1-3610.1,710.9-4033.5,1563.6
					l-80.5,164.6v220.4v222.3l86.2,172.5c70.9,143.7,116.9,203.1,268.3,354.5c99.6,101.6,247.2,228,327.7,281.7
					c369.8,252.9,952.3,503.9,1477.4,638.1c80.5,21.1,161,44.1,178.2,49.8c24.9,9.6,30.7,3.8,24.9-30.6
					c-3.8-34.5-38.3-53.7-183.9-105.4c-701.3-251-1230.2-684.1-1366.2-1119c-140.1-454.3,70.7-927.6,568.9-1284.1
					c1469.7-1046.2,4754-1046.2,6223.7,0c823.9,588.3,812.4,1418-30.7,2015.8c-346.8,245.3-938.9,482.9-1490.8,597.8
					c-90.1,19.2-170.5,42.2-180.1,49.8C1382.4-682.4,1407.3-684.3,1700.5-737.9z"/>
				<path d="M5.8-4929c-647.8,0-1297.5,61.6-1907.6,182.1c-799.4,157.9-1490.5,409.1-1998.6,726.4c-403.3,250.2-723.7,569.5-879,876
					c-288.1,574.1-142.9,1192.4,398.2,1696.5c460.4,429.7,1161.9,772.3,2028.6,990.8c142.1,36.5,211.9,54.7,246.9,70
					c24.8,10.9,25.1,13.8,27.6,36.8c11.7,124.6,125,707.7,186.5,959.5c165.7,692.9,387.8,1305.5,679.1,1872.6
					c291,566.5,654.2,1093.8,1110.3,1612C-48.6,4155-10.4,4203.3,6.4,4227c-57.3,27.4-260.2,96.8-442.9,144.2
					c-241.5,60.4-520.7,91.7-933.4,104.6c-447.2,15.3-483.8,34.8-495.8,41.2c-73.6,39.2-115.9,109.9-113.1,189
					c3,87.7,60.2,166.8,149.2,206.6c0,0,0.1,0,0.2,0.1c92.6,40.6,854.7,0.7,1182.7-52c257.7-39.7,575.9-127.5,872.9-240.8
					c285.5-110.9,374.4-167.4,374.4-305.1c0-91.1-11.7-104.3-311-442c-527.7-596.5-954.4-1236.4-1233.8-1850.6
					C-1442.7,929.4-1710.5-339-1787-1969.5c-13.2-308.2-34.6-390.8-169.6-429.1c-72.5-19.6-139.6-9.3-189.4,28.8
					c-55.3,42.4-85.8,115.5-85.8,206l1,51.8l-19.9-10.6c-0.4-0.2-0.7-0.4-1.1-0.6c-28.1-13.2-93.8-65.2-146.6-116.1
					c-101.3-97.8-110.4-144.9-46.4-240.1c80.6-121.9,276.9-204.8,600-253.6c171.6-24.7,241.7-85.7,241.7-210.5
					c0-72.2-19-125-57.9-161.3c-52.1-48.6-139.6-66.7-275.4-57.1c-271.1,20.8-521.2,111.5-704.2,255.6
					c-185.5,146-286.7,334.4-284.8,530.3c2,274.6,176.1,486.9,582.1,709.6c134.5,73.9,134.5,80,134.5,119.9
					c0,37.7,6.2,100.8,13.8,140.8c2.1,13.7,4.2,27.2,5.1,36.7c-5.7-1.2-12.5-2.8-18.8-4.4c-26.1-6.6-149.3-60.2-284.1-126.5
					c-382-187.2-643.1-406.5-755.1-634.3c-73.4-150.6-71.3-333.6,5.8-489.5c66-135.8,267.3-345.3,439.6-457.7
					c486.4-317.9,1291.6-554.2,2153.9-632.1c309.4-26.9,989.1-26.9,1298.6,0c862,77.8,1667.2,314.1,2153.8,632.1
					c172.3,112.4,373.7,322,439.6,457.6c46.3,92.5,55,131.9,55,247.8c1.8,186.4-58.2,310.5-238.1,492.1
					c-290,289.9-760.6,519.8-1398.7,683.2c-117.4,30.1-211.6,52.5-250,60.9c-3.1-20.6-6.2-61.7-6.2-124.8v-132l63.6-16.3
					c646.3-164.1,1070.5-401.5,1226.7-686.7c52.1-92.1,60.6-129.5,60.6-266.8c0-124.9-9.6-176.4-46.7-250.7
					c-177.6-347.4-715.2-616.1-1598.1-798.9C792.8-3479.8,354-3531.6,133-3531.6c-188.6,0-219.3,3.1-273.2,50.3
					c-36.6,30.1-60.8,77.2-69.6,135.8c-11,78.7,1.3,105.3,52.1,162.1l57.7,63.4c4.3,4.7,10.2,7.6,16.5,8.1L223-3087
					c152.4,12.1,345.2,28.2,398.8,36.2c345.3,46.9,866.6,169.8,1115.9,263.1c291.4,109.5,540.5,272,579.3,378
					c36.4,92.8-98.8,235.1-328.5,346.4c-117.9,57.1-489.1,189.9-584.8,214.1c-3.8-39.8-7.8-138.3-7.8-287.4v-314.3
					c0-6.6-2.6-13-7.3-17.7l-53.6-53.7c-47.4-47.4-82.7-61-157.6-61c-122.3,0-193,70.8-216.3,216.6
					c-21.3,145.2,6.5,1643.9,38.1,2056.2c156,1939,578.5,3565.7,1159.3,4462.9c201.7,311.1,230.4,336.3,511.8,448.4
					c608.3,237.9,1015.1,312.2,1741.3,318c380.4,1.9,387.7,2,442.9-51.1c30.4-28.2,59.8-77,66.6-110.8c19.8-87.9-39.3-212-115.2-241
					c-36.2-14.4-285.9-31.4-502.3-39.9c-623.2-21-934.9-80.8-1450.2-278.2c-191.8-71.9-225.4-106.2-399.3-408.7
					c-447.1-775.8-815.2-2148-960.6-3581c-32.3-309.2-46.8-448.3-43-479.8c16.8-4.1,135.4-26,269.5-48.7
					C2464.6-447.9,3140.8-666.9,3675.7-954c537.1-288.3,922.6-640.3,1114.8-1018.1c136.5-271.3,173.4-674.1,85.7-937.1
					c-88-264.2-187.6-424.8-409.8-660.7c-347.1-363.2-884.1-677.7-1553-909.6c-667.8-231.6-1467.1-380.9-2311.3-431.8
					C404.4-4923.1,205.2-4929,5.8-4929z M-1809.3,4866.9c-71.4-31.9-117.2-94.2-119.6-162.6c-2.1-60.5,29.5-112.7,86.7-143.1
					c6.7-3.4,61.3-21.2,473.9-35.4c416.4-13.1,698.8-44.8,944.1-106.1c97.9-25.4,215.3-60.7,314.4-94.7
					c174.1-59.7,174.1-72,174.1-90.5c0-7.2,0-26.3-128.8-173.6C-966.9,3035.6-1515.4,1967.5-1843,597.5
					c-61.2-250.5-173.8-829.2-185.3-952.7c-7.7-72.2-24.8-76.6-311.9-150.3c-858.6-216.5-1552.6-555-2006.9-979
					c-523.7-487.8-665-1084.6-387.6-1637.4c149-294.1,470.8-614.2,860.7-856.1c1020.9-637.6,2776.7-984.3,4473-883.5
					c1703.5,102.7,3135.7,598.4,3831,1325.9c216.4,229.7,313.3,385.8,398.7,642.1c83.9,251.8,48.3,638.2-82.9,898.8
					c-187.5,368.5-565.8,713.2-1093.8,996.6c-530.2,284.5-1201.2,501.8-1940.4,628.3c-125.9,21.3-260.4,45.8-276.6,50.4l-2.3,0.7
					c-34.7,10.1-34.7,39-31.6,93.6c3.5,62.6,15.6,179.6,42.6,438.3c146,1439.5,516.6,2819.2,967,3600.8
					c180.3,313.5,220,353.7,424.9,430.5c521.3,199.7,836.5,260.2,1466.1,281.4c280.1,11,465.2,28.6,486,36.5
					c53.3,20.4,98.9,120,84.5,184c-4.9,24.2-29.2,63.6-52,84.9c-40.2,38.6-40.9,39.3-408.3,37.4c-719-5.7-1121.7-79.2-1723.2-314.5
					c-272.7-108.7-290.9-124.7-488.2-429.1c-576.5-890.5-996.1-2508.6-1151.5-4439.6c-30.4-396.5-58.8-1906.2-38.5-2044.7
					c19.2-120.3,70.7-174.1,166.9-174.1c61.7,0,84.5,8.7,122.2,46.4l46.3,46.4v304c0,85.2,1.4,165,3.9,224.6
					c3.8,89.6,4.9,116.7,34.5,116.7c52.2,0,504.8-164.2,626-222.9c262.4-127.1,401.1-287.7,353.5-409.1
					c-44.5-121.6-294.8-289.2-608.5-407.1c-256.5-96-772.4-217.7-1126.4-265.8c-54.7-8.2-248.8-24.4-401.9-36.6l-296.7-24.1
					l-50.9-55.9c-44-49.2-48.1-61.7-39.7-121.5c6.8-46,25-82.3,52.4-104.8c39.1-34.1,54.9-38.4,240.9-38.4
					c218.2,0,652.7,51.4,968.5,114.5c867.1,179.5,1393.2,439.4,1563.4,772.5c31,62,41.4,103.7,41.4,228.1
					c0,128.7-6.6,158.2-54.3,242.5c-149.6,273-562.9,502-1195.4,662.6l-82.5,21.1c-11.1,2.8-18.8,12.8-18.8,24.2v151.4
					c0,42.8,1.5,82.1,4.2,110.6c2.9,30.2,6.4,67.7,36.1,67.7c15.9,0,197.8-45.3,278.3-66c647-165.6,1125.3-399.9,1421.8-696.3
					c188.5-190.3,254.6-328.4,252.6-527.6c0-122.8-10.7-170.7-60.1-269.6c-69.1-142.1-278.5-360.8-457.1-477.4
					c-493.1-322.3-1306.8-561.6-2176.7-640.1c-311.6-27.1-995.8-27.1-1307.4,0c-870.1,78.6-1683.9,317.9-2176.8,640.1
					c-178.6,116.5-388,335.2-457.2,477.6c-83.8,169.5-86,369-5.8,533.5c117,237.9,386,465.1,778,657.2
					c128.7,63.3,260.7,121.8,294.2,130.2c33.1,8,52.9,12.7,69-2c17-15.6,13.8-36.6,5.9-87.3c-7.2-37.6-13.1-97.8-13.1-132.3
					c0-73-28-91-160.5-163.7c-388-212.8-554.3-412.1-556.1-666.2c-1.8-180.2,92.6-354.4,265.7-490.6c175.3-138,415.7-225,676.9-245
					c120.8-8.6,196.4,5.4,237.7,43.8c28.3,26.4,42,67.2,42,124.7c0,83.9-32.6,137.1-199,161.1c-342.8,51.8-544.3,139.3-634.3,275.4
					c-77.9,115.8-65,189.7,53.3,303.9c49,47.2,121.4,106.9,159.4,125.1l57,30.3c7.8,4.2,17.3,3.9,24.8-0.8
					c7.6-4.6,12.1-12.9,11.9-21.8l-1.9-93.9c0-74.1,23.5-133.1,66.2-165.8c37.7-28.9,88.1-35.9,145.7-20.3
					c95.5,27.1,119.3,65.7,132.9,383.1c76.8,1637.2,346,2911.4,847.2,4010.2c281.4,618.6,710.8,1262.9,1241.8,1863
					c298.4,336.7,298.4,339.4,298.4,408.8c0,97.2-44.9,142.9-342.4,258.4c-293.8,112-608.3,198.8-862.8,238.1
					C-1003.7,4867.4-1739.6,4897.1-1809.3,4866.9z M20.4,4219.1L20.4,4219.1L20.4,4219.1z M10-4531.2c-129.2,0-259,2.3-389.3,7
					c-1959.8,67.4-3627.3,716.1-4055,1577.5l-80.6,164.7c-1.7,3.4-2.5,7.2-2.5,11v442.7c0,3.9,0.9,7.7,2.6,11.2l86.2,172.5
					c71.3,144.5,117.2,205.2,273,361c99.4,101.4,248.2,229.2,331.5,284.8c371.5,254,954.5,505.9,1485.1,641.5
					c81.4,21.3,159.4,43.7,176,49.1c9.6,3.7,30.7,11.4,47.2-2c16.3-13.3,14.3-35.6,10.9-55.7c-6.2-52.1-57.2-74.6-200.3-125.4
					c-341.4-122.2-648.4-290.4-887.6-486.3c-237.7-194.7-397.8-407.9-463.1-616.6c-137.4-445.6,66.5-903.5,559.6-1256.3
					c686.1-488.4,1844-780,3097.3-780s2411.2,291.6,3097.4,780c392.7,280.4,600,616.5,599.4,971.9
					c-0.6,359.2-224.3,715.5-630,1003.1c-341.9,241.8-937.2,480.4-1481.4,593.7c-46.3,9.9-170.6,38.9-190.5,54.7
					c-0.3,0.2-0.6,0.5-0.9,0.8c-6.1,5.3-24.8,21.6-15,42.1c10.7,22.3,37.2,19.5,91.4,11.5c47.5-7,124.7-20.7,233.9-40.7
					c0,0,0,0,0.1,0c646.8-119.9,1236.1-308.3,1704-545c470.8-238.1,811.7-521.6,986-819.8c107.9-182.5,139.5-309.7,129.9-523.4
					c-5.9-164.3-18-199.9-90.6-347.1c-160.3-323.6-506.6-628.9-1001.4-883c-492.2-252.8-1120.9-449.7-1818.2-569.5
					C1122-4487,573.6-4531.2,10-4531.2z M-4467.5-2765.2l78-159.4c419.8-845.5,2069.6-1482.8,4011.9-1549.6
					c695.4-24.9,1381.4,17.4,1983.9,122.2c692.4,119,1316.2,314.3,1803.9,564.7c485.2,249.2,823.9,546.9,979.4,860.7
					c70.6,143,79.9,170.4,85.5,327c9.2,205.2-19.5,321-123,496.1c-169.5,290-503.4,566.8-965.5,800.5
					c-428.5,216.7-960.2,392.7-1545.2,512.1c480.2-127.3,954-330.8,1255.2-543.8c419.3-297.3,650.5-668,651.1-1043.8
					c0.3-182.1-52.1-361-155.6-532c-105.5-174.1-261.8-335.9-464.7-480.8c-358.6-255.3-827.7-454.6-1394.4-592.4
					c-529.4-128.8-1128.3-196.9-1732-196.9s-1202.6,68.1-1732,196.9c-566.7,137.9-1035.9,337.2-1394.4,592.4
					c-248.3,177.7-432.3,390.6-532.2,615.6c-100.7,226.9-116.6,467.6-46.1,696.2c139.2,445,668.6,880,1381.7,1135.2
					c127.7,45.4,165.2,64.3,167.5,84.6c0.1,0.5,0.1,0.9,0.2,1.4c0,0.1,0,0.2,0.1,0.3c-27.2-8.3-99.7-28.9-172.2-47.9
					c-525.5-134.3-1102.3-383.4-1469.6-634.6c-81.2-54.2-226.4-179.1-324-278.6c-151.1-151.1-195.4-209.6-263.7-348.1l-83.6-167.3
					V-2765.2z"/>
			</g>
		</g>
		<g transform="matrix(0.1 0 0 -0.1 92.06 -88.36)">
			<g>
				<path vector-effect="non-scaling-stroke" class="st1" d="M745.4,3575.1c-53.7-46-182-220.4-333.4-454.1
					C-496.3,1714.5-891,131.8-1034.7-2685c-9.6-205-19.2-473.3-19.2-595.9c0-195.4,5.7-228,38.3-272.1
					c86.2-109.2,283.6-76.6,323.8,51.7c11.5,32.6,28.7,279.8,40.3,548C-525,68.5-101.6,1731.7,910.2,3155.4
					c124.6,174.4,143.7,212.7,143.7,283.6c0,67.1-9.6,90.1-59.4,130.3C919.8,3632.6,814.4,3636.4,745.4,3575.1z"/>
				<path d="M-871.3-3644c-65.4,0-125.7,27.1-164,75.6c-38,51.4-43.7,89-43.7,287.6c0,122.4,9.7,393,19.2,597.1
					C-915.4,143.5-522.3,1720.4,391,3134.6c152.4,235.2,281.8,411.1,337.9,459.4c77.9,69.1,196.4,66.8,281.7-5.5
					c54.8-44.2,68.2-73.6,68.2-149.4c0-77.8-20.8-119.6-148.4-298.1C-77.9,1721.9-499.9,69.9-626.5-2954.3
					c-8-185-25.8-510.2-41.7-555.3c-20.6-65.8-81.7-116.1-159-130.4C-842-3642.7-856.8-3644-871.3-3644z M862.7,3594.1
					c-36.8,0-72.4-12.5-100.7-37.7c-0.1-0.1-0.2-0.2-0.3-0.3c-51.8-44.4-180.8-220.5-328.7-448.7
					c-908-1406-1299-2976.2-1442.7-5793.7c-9.5-203.3-19.2-473-19.2-594.6c0-193.8,5.9-220,33.4-257.2
					c34.7-43.9,95.9-64.4,159.2-52.7c59.1,10.9,105.3,48.1,120.7,97c8.8,24.9,26.1,238.5,39.2,541.6
					C-549.4,82.8-124.9,1742,889.8,3169.9c127.1,177.9,139.1,207.8,139.1,269.1c0,60.5-7,76.1-50.1,110.8
					C944.1,3579.3,902.7,3594.1,862.7,3594.1z M745.4,3575.1L745.4,3575.1L745.4,3575.1z"/>
			</g>
		</g>
		<g transform="matrix(0.1 0 0 -0.1 2.61 -94.11)">
			<g>
				<path vector-effect="non-scaling-stroke" class="st1" d="M932.8,3473.5c-26.8-17.2-105.4-101.6-176.3-187.8
					C-92.3,2247.2-644.2,992.1-952.7-606c-138-718.6-256.8-1820.3-266.3-2494.8c-3.8-281.7-1.9-291.3,42.2-339.2
					c67.1-70.9,157.1-82.4,237.6-32.6c93.9,57.5,88.1,30.7,128.4,749.2c76.6,1356.6,310.4,2623.2,661.1,3594.7
					c289.3,793.3,687.9,1521.4,1140.1,2077.1c214.6,262.5,229.9,287.4,229.9,367.9C1220.3,3465.8,1059.3,3552.1,932.8,3473.5z"/>
				<path d="M-1040.4-3528.1c-55.9,0-110.2,24-154.6,70.9c-53.1,57.6-52.8,80.2-49,356.7c9.5,671.8,126.6,1769.6,266.7,2499.2
					c156,808,369.8,1514.9,653.7,2161c283.8,645.9,630.7,1215.7,1060.7,1741.8c65.9,80.1,149.6,172.1,182.1,193
					c0.1,0.1,0.2,0.1,0.3,0.2c68,42.3,149.6,44.8,218.2,6.6c67.3-37.4,107.5-106.6,107.5-185.1c0-88.5-17.6-117.2-235.5-383.7
					c-451.8-555.2-844.6-1271-1136-2069.8c-349.4-967.8-583.6-2241.9-659.6-3587.5l-5.2-93.2c-34.3-615.1-34.3-615.1-126.4-670.7
					l-8.7-5.3C-963.1-3516.9-1002.1-3528.1-1040.4-3528.1z M946.2,3452.3c-20.9-13.6-94.2-90-170.4-182.6
					C-65.4,2240.6-622.8,971.2-928.2-610.8c-139.6-727.2-256.4-1821.1-265.8-2490.4c-3.8-279.2-1.5-281.6,35.6-321.9
					c58.1-61.4,135.2-72.1,206.1-28.3l9.1,5.5c69.5,42,69.5,42,102.3,630.7l5.2,93.2C-759.5-1371.7-524.2-92.6-173.2,879.7
					C120,1683.9,515.7,2404.6,971,2964.1c217,265.4,224.3,282,224.3,352.1c0,60-30.6,112.9-81.8,141.4
					C1061.1,3486.8,998.5,3484.8,946.2,3452.3z"/>
			</g>
		</g>
	</g>
</g>
</svg>
